<svg xmlns="http://www.w3.org/2000/svg" viewBox="0 0 120 40">
  <rect width="120" height="40" rx="5" fill="#000"/>
  <rect width="120" height="40" rx="5" stroke="#a6a6a6" stroke-width="1" fill="none"/>
  <text x="42" y="12" fill="#fff" font-family="Arial,sans-serif" font-size="7" letter-spacing="0.5">Download on the</text>
  <text x="42" y="27" fill="#fff" font-family="Arial,sans-serif" font-size="14" font-weight="bold">App Store</text>
  <g transform="translate(10,5) scale(0.6)">
    <path fill="#fff" d="M24.769 20.3a5.882 5.882 0 0 1 2.8-4.938 6.04 6.04 0 0 0-4.76-2.573c-2.003-.21-3.946 1.197-4.97 1.197-1.042 0-2.613-1.177-4.308-1.143a6.345 6.345 0 0 0-5.34 3.258c-2.308 3.995-.589 9.876 1.629 13.108 1.1 1.583 2.392 3.35 4.088 3.288 1.654-.068 2.274-1.063 4.27-1.063 1.98 0 2.557 1.063 4.286 1.025 1.774-.03 2.894-1.593 3.948-3.193a13.03 13.03 0 0 0 1.798-3.658 5.687 5.687 0 0 1-3.441-5.308zm-3.22-9.758a5.804 5.804 0 0 0 1.328-4.162 5.906 5.906 0 0 0-3.822 1.978 5.526 5.526 0 0 0-1.364 4.003 4.882 4.882 0 0 0 3.858-1.819z"/>
  </g>
</svg>